<?xml version="1.0" encoding="UTF-8" standalone="no"?>
<!-- Created with Inkscape (http://www.inkscape.org/) -->

<svg
   xmlns:dc="http://purl.org/dc/elements/1.1/"
   xmlns:cc="http://creativecommons.org/ns#"
   xmlns:rdf="http://www.w3.org/1999/02/22-rdf-syntax-ns#"
   xmlns:svg="http://www.w3.org/2000/svg"
   xmlns="http://www.w3.org/2000/svg"
   xmlns:sodipodi="http://sodipodi.sourceforge.net/DTD/sodipodi-0.dtd"
   xmlns:inkscape="http://www.inkscape.org/namespaces/inkscape"
   width="210mm"
   height="345mm"
   viewBox="0 0 210 345"
   version="1.1"
   id="svg8"
   inkscape:version="0.92.1 r15371"
   sodipodi:docname="dc_logo.svg">
  <defs
     id="defs2">
    <clipPath
       id="clipPath26"
       clipPathUnits="userSpaceOnUse">
      <path
         inkscape:connector-curvature="0"
         id="path24"
         d="M 0,1080 H 1920 V 0 H 0 Z" />
    </clipPath>
    <clipPath
       id="clipPath98"
       clipPathUnits="userSpaceOnUse">
      <path
         inkscape:connector-curvature="0"
         id="path96"
         d="M 0,1080 H 1920 V 0 H 0 Z" />
    </clipPath>
    <clipPath
       id="clipPath163"
       clipPathUnits="userSpaceOnUse">
      <path
         inkscape:connector-curvature="0"
         id="path161"
         d="M 0,1080 H 1920 V 0 H 0 Z" />
    </clipPath>
    <clipPath
       id="clipPath235"
       clipPathUnits="userSpaceOnUse">
      <path
         inkscape:connector-curvature="0"
         id="path233"
         d="M 0,1080 H 1920 V 0 H 0 Z" />
    </clipPath>
  </defs>
  <sodipodi:namedview
     id="base"
     pagecolor="#ffffff"
     bordercolor="#666666"
     borderopacity="1.0"
     inkscape:pageopacity="0.0"
     inkscape:pageshadow="2"
     inkscape:zoom="0.35"
     inkscape:cx="400"
     inkscape:cy="560"
     inkscape:document-units="mm"
     inkscape:current-layer="layer1"
     showgrid="false"
     inkscape:window-width="1920"
     inkscape:window-height="1017"
     inkscape:window-x="-8"
     inkscape:window-y="-8"
     inkscape:window-maximized="1" />
  <metadata
     id="metadata5">
    <rdf:RDF>
      <cc:Work
         rdf:about="">
        <dc:format>image/svg+xml</dc:format>
        <dc:type
           rdf:resource="http://purl.org/dc/dcmitype/StillImage" />
        <dc:title></dc:title>
      </cc:Work>
    </rdf:RDF>
  </metadata>
  <g
     inkscape:label="Layer 1"
     inkscape:groupmode="layer"
     id="layer1"
     transform="translate(0,48)">
    <g
       transform="matrix(0.35277777,0,0,-0.35277777,-233.71442,315.62886)"
       inkscape:label="DevOps-Commander_Logo_2"
       id="g155">
      <g
         id="g157">
        <g
           clip-path="url(#clipPath163)"
           id="g159">
          <g
             transform="translate(907.9137,717.7766)"
             id="g165">
            <path
               inkscape:connector-curvature="0"
               id="path167"
               style="fill:#009e9a;fill-opacity:1;fill-rule:nonzero;stroke:none"
               d="m 0,0 c -10.239,0 -18.569,-8.33 -18.569,-18.569 0,-10.241 8.33,-18.571 18.569,-18.571 10.238,0 18.568,8.33 18.568,18.571 C 18.568,-8.33 10.238,0 0,0 m 0,-48.104 c -16.284,0 -29.534,13.25 -29.534,29.535 0,16.286 13.25,29.534 29.534,29.534 16.285,0 29.533,-13.248 29.533,-29.534 0,-16.285 -13.248,-29.535 -29.533,-29.535" />
          </g>
          <g
             transform="translate(1040.3756,717.7776)"
             id="g169">
            <path
               inkscape:connector-curvature="0"
               id="path171"
               style="fill:#009e9a;fill-opacity:1;fill-rule:nonzero;stroke:none"
               d="m 0,0 c -10.238,0 -18.568,-8.33 -18.568,-18.569 0,-10.241 8.33,-18.571 18.568,-18.571 10.239,0 18.57,8.33 18.57,18.571 C 18.57,-8.33 10.239,0 0,0 m 0,-48.104 c -16.284,0 -29.533,13.249 -29.533,29.535 0,16.285 13.249,29.534 29.533,29.534 16.284,0 29.535,-13.249 29.535,-29.534 0,-16.286 -13.251,-29.535 -29.535,-29.535" />
          </g>
          <g
             transform="translate(1040.0221,751.2864)"
             id="g173">
            <path
               inkscape:connector-curvature="0"
               id="path175"
               style="fill:#0059a8;fill-opacity:1;fill-rule:nonzero;stroke:none"
               d="m 0,0 c -13.525,0 -26.372,-5.212 -36.168,-14.671 -2.178,-2.102 -2.24,-5.573 -0.137,-7.752 2.104,-2.18 5.576,-2.239 7.751,-0.137 7.744,7.477 17.884,11.595 28.554,11.595 22.671,0 41.114,-18.444 41.114,-41.114 0,-22.67 -18.443,-41.113 -41.114,-41.113 -10.752,0 -21.276,4.336 -28.919,11.895 -0.049,0.053 -0.083,0.114 -0.135,0.166 l -65.877,65.877 c 0,0 -0.004,0.002 -0.004,0.003 C -104.627,-5.56 -118.048,0 -131.754,0 c -28.716,0 -52.079,-23.363 -52.079,-52.079 0,-28.715 23.363,-52.078 52.079,-52.078 13.44,0 26.225,5.153 36.002,14.51 0.013,0.012 0.021,0.028 0.034,0.041 0.015,0.013 0.033,0.023 0.048,0.039 l 17.149,17.148 c 2.144,2.139 2.147,5.609 0.009,7.751 -2.136,2.146 -5.609,2.147 -7.752,0.013 l -17.107,-17.106 c -7.722,-7.371 -17.797,-11.431 -28.383,-11.431 -22.671,0 -41.114,18.443 -41.114,41.113 0,22.67 18.443,41.114 41.114,41.114 10.819,0 21.414,-4.389 29.067,-12.038 0.002,-0.002 0.003,-0.005 0.003,-0.005 L -36.992,-88.7 c 0.059,-0.066 0.103,-0.141 0.167,-0.205 9.695,-9.693 23.116,-15.252 36.825,-15.252 28.716,0 52.079,23.363 52.079,52.078 C 52.079,-23.363 28.716,0 0,0" />
          </g>
          <g
             transform="translate(1040.0729,620.9397)"
             id="g177">
            <path
               inkscape:connector-curvature="0"
               id="path179"
               style="fill:#292e6d;fill-opacity:1;fill-rule:nonzero;stroke:none"
               d="m 0,0 h -67.082 c -3.895,0 -7.049,3.156 -7.049,7.049 0,3.892 3.154,7.049 7.049,7.049 H 0 c 35.192,0 63.822,28.631 63.822,63.824 0,35.19 -28.63,63.821 -63.822,63.821 -16.565,0 -32.306,-6.389 -44.325,-17.994 -2.804,-2.706 -7.265,-2.624 -9.967,0.175 -2.705,2.801 -2.626,7.263 0.174,9.968 14.663,14.155 33.882,21.95 54.118,21.95 42.965,0 77.92,-34.955 77.92,-77.92 C 77.92,34.955 42.965,0 0,0" />
          </g>
          <g
             transform="translate(955.7848,640.6936)"
             id="g181">
            <path
               inkscape:connector-curvature="0"
               id="path183"
               style="fill:#7c56a3;fill-opacity:1;fill-rule:nonzero;stroke:none"
               d="m 0,0 c -1.804,0 -3.607,0.687 -4.984,2.064 -2.753,2.752 -2.753,7.215 0,9.969 l 19.163,19.163 c 2.751,2.754 7.214,2.753 9.967,0.002 2.753,-2.754 2.753,-7.217 0,-9.969 L 4.984,2.064 C 3.608,0.687 1.803,0 0,0" />
          </g>
          <g
             transform="translate(1006.3649,835.0823)"
             id="g185">
            <path
               inkscape:connector-curvature="0"
               id="path187"
               style="fill:#292e6d;fill-opacity:1;fill-rule:nonzero;stroke:none"
               d="M 0,0 C 0.146,0.052 0.26,0.162 0.306,0.293 L 0.462,0.76 C 0.553,1.032 0.646,1.304 0.755,1.597 0.81,1.744 0.809,1.895 0.75,2.017 L -2.279,8.58 c -0.731,1.584 -0.621,3.405 0.204,4.886 -9.357,3.579 -19.505,5.546 -30.105,5.546 -46.6,0 -84.513,-37.915 -84.513,-84.516 0,-3.892 3.154,-7.049 7.048,-7.049 3.893,0 7.049,3.157 7.049,7.049 0,38.828 31.588,70.418 70.416,70.418 10.228,0 19.944,-2.21 28.722,-6.148 z" />
          </g>
          <g
             transform="translate(1049.2125,798.5354)"
             id="g189">
            <path
               inkscape:connector-curvature="0"
               id="path191"
               style="fill:#292e6d;fill-opacity:1;fill-rule:nonzero;stroke:none"
               d="M 0,0 -6.403,2.955 C -6.552,3.026 -6.729,3.015 -6.88,2.931 -7.319,2.68 -7.81,2.418 -8.395,2.216 -8.543,2.164 -8.662,2.052 -8.714,1.904 l -1.334,-3.739 c 3.499,-8.353 5.44,-17.515 5.44,-27.122 0,-3.893 3.156,-7.049 7.048,-7.049 3.893,0 7.049,3.156 7.049,7.049 0,10.153 -1.802,19.894 -5.098,28.921 C 3.011,-0.629 1.413,-0.652 0,0" />
          </g>
          <g
             transform="translate(1031.3649,812.2629)"
             id="g193">
            <path
               inkscape:connector-curvature="0"
               id="path195"
               style="fill:none;stroke:#ffffff;stroke-width:0.88;stroke-linecap:butt;stroke-linejoin:miter;stroke-miterlimit:10;stroke-dasharray:none;stroke-opacity:1"
               d="M 0,0 C -7.217,0 -13.551,6.332 -13.551,13.551 -13.551,20.768 -7.217,27.1 0,27.1 7.217,27.1 13.551,20.768 13.551,13.551 13.551,6.332 7.217,0 0,0 m 1.623,-22.221 h -3.246 c -2.272,0 -4.311,1.437 -5.076,3.573 l -2.572,7.198 c -0.052,0.143 -0.162,0.259 -0.292,0.305 l -0.481,0.165 c -0.267,0.089 -0.534,0.176 -0.82,0.285 -0.147,0.053 -0.303,0.051 -0.423,-0.005 l -6.564,-3.028 c -2.036,-0.938 -4.48,-0.507 -6.07,1.084 l -2.272,2.275 c -1.59,1.586 -2.028,4.028 -1.086,6.069 l 2.958,6.404 c 0.067,0.149 0.057,0.328 -0.029,0.478 -0.253,0.444 -0.515,0.938 -0.712,1.516 -0.054,0.145 -0.166,0.263 -0.309,0.315 l -6.822,2.439 c -2.141,0.761 -3.578,2.802 -3.578,5.074 v 3.248 c 0,2.271 1.437,4.312 3.578,5.077 L -25,22.819 c 0.146,0.052 0.26,0.162 0.306,0.293 l 0.156,0.467 c 0.091,0.273 0.184,0.544 0.293,0.837 0.055,0.147 0.054,0.298 -0.005,0.42 l -3.029,6.563 c -0.942,2.041 -0.504,4.482 1.086,6.07 l 2.272,2.276 c 1.59,1.591 4.03,2.024 6.07,1.082 l 6.564,-3.029 c 0.12,-0.055 0.273,-0.058 0.419,-0.003 0.295,0.109 0.565,0.2 0.842,0.293 l 0.464,0.158 c 0.129,0.045 0.239,0.159 0.291,0.304 l 2.572,7.194 c 0.763,2.142 2.803,3.576 5.076,3.576 h 3.246 c 2.273,0 4.313,-1.434 5.076,-3.576 l 2.57,-7.196 C 9.32,38.405 9.43,38.291 9.562,38.242 l 0.469,-0.156 c 0.272,-0.091 0.542,-0.182 0.832,-0.291 0.148,-0.052 0.298,-0.055 0.423,0.003 l 6.561,3.029 c 2.045,0.944 4.481,0.505 6.074,-1.085 l 2.272,-2.273 c 1.59,-1.59 2.023,-4.029 1.083,-6.069 L 24.25,24.837 c -0.059,-0.125 -0.06,-0.274 -0.007,-0.421 0.109,-0.288 0.199,-0.558 0.29,-0.83 l 0.16,-0.47 c 0.047,-0.137 0.161,-0.245 0.304,-0.295 l 7.196,-2.57 c 2.14,-0.765 3.577,-2.804 3.577,-5.077 v -3.248 c 0,-2.274 -1.437,-4.313 -3.579,-5.074 L 24.997,4.279 C 24.854,4.228 24.74,4.12 24.694,3.99 L 24.533,3.514 C 24.442,3.242 24.352,2.972 24.242,2.682 24.19,2.536 24.191,2.388 24.248,2.266 L 27.276,-4.3 c 0.94,-2.041 0.507,-4.479 -1.081,-6.069 l -2.276,-2.275 c -1.588,-1.586 -4.028,-2.027 -6.071,-1.084 l -6.404,2.956 c -0.148,0.071 -0.326,0.059 -0.476,-0.025 -0.44,-0.251 -0.93,-0.513 -1.515,-0.715 -0.148,-0.051 -0.267,-0.164 -0.319,-0.311 l -2.435,-6.822 c -0.765,-2.139 -2.803,-3.576 -5.076,-3.576" />
          </g>
          <g
             transform="translate(1031.3649,834.4836)"
             id="g197">
            <path
               inkscape:connector-curvature="0"
               id="path199"
               style="fill:#7c56a3;fill-opacity:1;fill-rule:nonzero;stroke:#7c569b;stroke-width:0.88;stroke-linecap:butt;stroke-linejoin:miter;stroke-miterlimit:10;stroke-dasharray:none;stroke-opacity:1"
               d="m 0,0 c -4.538,0 -8.67,-4.132 -8.67,-8.67 0,-4.538 4.132,-8.673 8.67,-8.673 4.538,0 8.67,4.135 8.67,8.673 C 8.67,-4.132 4.538,0 0,0 m 0,-22.221 c -7.217,0 -13.551,6.331 -13.551,13.551 0,7.217 6.334,13.548 13.551,13.548 7.217,0 13.551,-6.331 13.551,-13.548 0,-7.22 -6.334,-13.551 -13.551,-13.551 m -11.084,-5.772 c 0.647,0 1.297,-0.119 1.927,-0.354 0.227,-0.085 0.443,-0.157 0.658,-0.227 l 0.562,-0.193 c 1.521,-0.536 2.711,-1.724 3.259,-3.261 l 2.572,-7.197 c 0.073,-0.202 0.265,-0.339 0.483,-0.339 h 3.246 c 0.218,0 0.41,0.137 0.482,0.339 l 2.434,6.823 c 0.557,1.546 1.763,2.741 3.319,3.28 0.207,0.071 0.461,0.208 0.7,0.344 1.514,0.862 3.356,0.94 4.932,0.216 l 6.402,-2.959 c 0.193,-0.085 0.424,-0.046 0.575,0.104 l 2.277,2.275 c 0.152,0.151 0.193,0.383 0.103,0.578 l -3.031,6.562 c -0.607,1.314 -0.657,2.798 -0.142,4.175 0.088,0.231 0.158,0.446 0.23,0.663 l 0.19,0.559 c 0.537,1.519 1.724,2.711 3.262,3.258 l 7.196,2.569 c 0.203,0.075 0.34,0.267 0.34,0.482 v 3.249 c 0,0.215 -0.137,0.41 -0.337,0.483 l -7.2,2.569 c -1.537,0.548 -2.724,1.738 -3.262,3.264 l -0.189,0.553 c -0.072,0.216 -0.142,0.434 -0.23,0.66 -0.515,1.381 -0.465,2.865 0.146,4.18 l 3.027,6.56 c 0.09,0.194 0.049,0.426 -0.104,0.58 l -2.273,2.271 c -0.154,0.156 -0.385,0.195 -0.579,0.104 L 13.33,11.148 C 12.016,10.541 10.534,10.489 9.157,11.005 8.926,11.091 8.706,11.164 8.487,11.237 L 7.94,11.423 C 6.416,11.96 5.224,13.148 4.678,14.686 l -2.573,7.196 c -0.072,0.203 -0.264,0.34 -0.482,0.34 h -3.246 c -0.218,0 -0.41,-0.137 -0.483,-0.34 L -4.678,14.688 C -5.226,13.148 -6.416,11.96 -7.94,11.423 l -0.543,-0.186 c -0.22,-0.073 -0.443,-0.146 -0.679,-0.232 -1.372,-0.515 -2.854,-0.464 -4.168,0.143 l -6.564,3.03 c -0.197,0.09 -0.424,0.047 -0.578,-0.104 l -2.272,-2.275 c -0.153,-0.151 -0.193,-0.383 -0.104,-0.577 l 3.029,-6.562 c 0.608,-1.315 0.659,-2.799 0.143,-4.173 -0.088,-0.231 -0.16,-0.454 -0.231,-0.674 l -0.187,-0.545 c -0.541,-1.527 -1.729,-2.717 -3.266,-3.263 l -7.195,-2.569 c -0.202,-0.076 -0.338,-0.268 -0.338,-0.483 v -3.249 c 0,-0.215 0.136,-0.407 0.338,-0.482 l 6.823,-2.435 c 1.544,-0.551 2.741,-1.762 3.28,-3.318 0.065,-0.194 0.185,-0.419 0.346,-0.7 0.86,-1.514 0.939,-3.356 0.214,-4.932 l -2.956,-6.401 c -0.089,-0.195 -0.049,-0.423 0.104,-0.578 l 2.272,-2.272 c 0.154,-0.153 0.381,-0.192 0.578,-0.107 l 6.564,3.032 c 0.711,0.328 1.477,0.496 2.246,0.496 M 1.623,-44.442 h -3.246 c -2.272,0 -4.311,1.438 -5.076,3.575 l -2.572,7.196 c -0.052,0.144 -0.162,0.258 -0.292,0.305 l -0.481,0.165 c -0.267,0.089 -0.534,0.177 -0.82,0.285 -0.147,0.055 -0.303,0.052 -0.423,-0.004 l -6.564,-3.029 c -2.036,-0.938 -4.48,-0.507 -6.07,1.086 l -2.272,2.272 c -1.59,1.587 -2.028,4.029 -1.086,6.07 l 2.958,6.404 c 0.067,0.148 0.057,0.327 -0.029,0.477 -0.253,0.446 -0.515,0.939 -0.712,1.517 -0.054,0.147 -0.166,0.263 -0.309,0.314 l -6.822,2.44 c -2.141,0.761 -3.578,2.802 -3.578,5.073 v 3.249 c 0,2.272 1.437,4.313 3.578,5.076 L -25,0.599 c 0.146,0.051 0.26,0.161 0.306,0.295 l 0.156,0.464 c 0.091,0.273 0.184,0.545 0.293,0.837 0.055,0.147 0.054,0.297 -0.005,0.419 l -3.029,6.564 c -0.942,2.041 -0.504,4.483 1.086,6.07 l 2.272,2.275 c 1.59,1.592 4.03,2.025 6.07,1.083 l 6.564,-3.029 c 0.12,-0.055 0.273,-0.058 0.419,-0.004 0.295,0.111 0.565,0.201 0.842,0.293 l 0.464,0.158 c 0.129,0.046 0.239,0.161 0.291,0.305 l 2.572,7.194 c 0.763,2.141 2.803,3.577 5.076,3.577 h 3.246 c 2.273,0 4.313,-1.436 5.076,-3.577 l 2.57,-7.196 C 9.32,16.185 9.43,16.07 9.562,16.023 l 0.469,-0.158 c 0.272,-0.091 0.542,-0.181 0.832,-0.292 0.148,-0.051 0.298,-0.054 0.423,0.004 l 6.561,3.029 c 2.045,0.945 4.481,0.506 6.074,-1.085 l 2.272,-2.273 c 1.59,-1.59 2.023,-4.029 1.083,-6.068 L 24.25,2.618 C 24.191,2.491 24.19,2.342 24.243,2.195 24.352,1.906 24.442,1.638 24.533,1.364 l 0.16,-0.469 C 24.74,0.759 24.854,0.65 24.997,0.601 l 7.196,-2.572 c 2.14,-0.763 3.577,-2.803 3.577,-5.076 v -3.249 c 0,-2.272 -1.437,-4.312 -3.579,-5.073 l -7.194,-2.572 c -0.143,-0.052 -0.257,-0.161 -0.303,-0.29 l -0.161,-0.476 c -0.091,-0.272 -0.181,-0.542 -0.291,-0.832 -0.052,-0.146 -0.051,-0.295 0.006,-0.417 l 3.028,-6.565 c 0.94,-2.041 0.507,-4.48 -1.081,-6.07 l -2.276,-2.272 c -1.588,-1.589 -4.028,-2.028 -6.071,-1.086 l -6.404,2.956 c -0.148,0.07 -0.326,0.061 -0.476,-0.026 -0.44,-0.249 -0.93,-0.511 -1.515,-0.711 -0.148,-0.054 -0.267,-0.166 -0.319,-0.314 l -2.435,-6.822 c -0.765,-2.138 -2.803,-3.576 -5.076,-3.576" />
          </g>
          <g
             transform="translate(973.5699,785.3469)"
             id="g201">
            <path
               inkscape:connector-curvature="0"
               id="path203"
               style="fill:#ffffff;fill-opacity:1;fill-rule:nonzero;stroke:#ffffff;stroke-width:1.00999999;stroke-linecap:butt;stroke-linejoin:miter;stroke-miterlimit:10;stroke-dasharray:none;stroke-opacity:1"
               d="m 0,0 c -4.876,0 -9.153,4.277 -9.153,9.152 0,4.876 4.277,9.154 9.153,9.154 4.876,0 9.153,-4.278 9.153,-9.154 C 9.153,4.277 4.876,0 0,0 m 1.097,-15.011 h -2.194 c -1.533,0 -2.91,0.971 -3.428,2.413 l -1.737,4.862 c -0.036,0.098 -0.109,0.175 -0.198,0.208 l -0.325,0.11 c -0.18,0.059 -0.36,0.12 -0.554,0.192 -0.098,0.038 -0.205,0.036 -0.286,-0.002 l -4.434,-2.045 c -1.377,-0.635 -3.025,-0.344 -4.1,0.731 l -1.535,1.535 c -1.074,1.073 -1.37,2.723 -0.734,4.102 l 1.997,4.325 c 0.047,0.101 0.039,0.222 -0.017,0.324 -0.171,0.3 -0.35,0.633 -0.483,1.023 -0.036,0.1 -0.111,0.177 -0.208,0.213 l -4.608,1.648 c -1.447,0.514 -2.418,1.893 -2.418,3.428 v 2.194 c 0,1.535 0.971,2.914 2.418,3.43 l 4.859,1.735 c 0.098,0.034 0.175,0.109 0.205,0.199 l 0.107,0.314 c 0.062,0.184 0.126,0.368 0.197,0.565 0.038,0.1 0.036,0.202 -0.003,0.284 l -2.046,4.434 c -0.636,1.379 -0.34,3.028 0.734,4.1 l 1.535,1.537 c 1.075,1.077 2.723,1.368 4.1,0.731 l 4.434,-2.046 c 0.081,-0.037 0.186,-0.039 0.284,-0.002 0.198,0.074 0.382,0.135 0.569,0.198 l 0.314,0.107 c 0.087,0.03 0.16,0.107 0.196,0.204 l 1.737,4.862 c 0.516,1.446 1.893,2.414 3.428,2.414 h 2.194 c 1.536,0 2.913,-0.968 3.428,-2.414 L 6.263,26.04 C 6.297,25.943 6.37,25.866 6.458,25.834 l 0.318,-0.106 c 0.184,-0.062 0.368,-0.123 0.563,-0.197 0.099,-0.035 0.202,-0.037 0.284,0.002 l 4.434,2.046 c 1.381,0.639 3.028,0.342 4.102,-0.731 l 1.536,-1.537 c 1.074,-1.074 1.367,-2.721 0.732,-4.1 l -2.044,-4.434 c -0.04,-0.084 -0.042,-0.184 -0.006,-0.284 0.074,-0.193 0.135,-0.375 0.196,-0.56 l 0.108,-0.319 c 0.033,-0.092 0.11,-0.165 0.205,-0.197 l 4.861,-1.737 c 1.446,-0.516 2.417,-1.895 2.417,-3.43 V 8.056 c 0,-1.535 -0.971,-2.914 -2.417,-3.428 L 16.886,2.891 C 16.791,2.854 16.714,2.783 16.683,2.695 L 16.573,2.373 C 16.512,2.189 16.451,2.006 16.375,1.811 16.341,1.713 16.343,1.612 16.381,1.529 l 2.046,-4.434 c 0.635,-1.379 0.342,-3.027 -0.73,-4.102 L 16.158,-8.542 C 15.085,-9.613 13.436,-9.91 12.057,-9.273 L 7.731,-7.276 C 7.631,-7.229 7.51,-7.236 7.409,-7.294 7.112,-7.463 6.78,-7.642 6.387,-7.776 6.285,-7.812 6.207,-7.888 6.171,-7.988 L 4.525,-12.597 C 4.008,-14.04 2.633,-15.011 1.097,-15.011" />
          </g>
          <g
             transform="translate(973.5699,800.3577)"
             id="g205">
            <path
               inkscape:connector-curvature="0"
               id="path207"
               style="fill:#009e9a;fill-opacity:1;fill-rule:nonzero;stroke:#009c98;stroke-width:1.00999999;stroke-linecap:butt;stroke-linejoin:miter;stroke-miterlimit:10;stroke-dasharray:none;stroke-opacity:1"
               d="m 0,0 c -3.065,0 -5.857,-2.792 -5.857,-5.857 0,-3.066 2.792,-5.86 5.857,-5.86 3.065,0 5.857,2.794 5.857,5.86 C 5.857,-2.792 3.065,0 0,0 m 0,-15.011 c -4.876,0 -9.153,4.278 -9.153,9.154 0,4.876 4.277,9.153 9.153,9.153 4.876,0 9.153,-4.277 9.153,-9.153 0,-4.876 -4.277,-9.154 -9.153,-9.154 m -7.488,-3.899 c 0.438,0 0.878,-0.081 1.301,-0.239 0.156,-0.058 0.301,-0.107 0.447,-0.155 l 0.379,-0.13 c 1.026,-0.361 1.832,-1.165 2.202,-2.202 l 1.735,-4.861 c 0.051,-0.137 0.18,-0.231 0.327,-0.231 h 2.194 c 0.147,0 0.277,0.094 0.325,0.231 l 1.645,4.607 c 0.374,1.045 1.191,1.853 2.243,2.215 0.139,0.049 0.31,0.143 0.47,0.235 1.026,0.582 2.27,0.634 3.333,0.145 l 4.325,-1.999 c 0.129,-0.058 0.288,-0.032 0.388,0.069 l 1.539,1.538 c 0.103,0.103 0.129,0.259 0.069,0.39 l -2.046,4.434 c -0.412,0.886 -0.445,1.889 -0.098,2.819 0.06,0.158 0.108,0.302 0.156,0.447 l 0.128,0.378 c 0.364,1.027 1.165,1.832 2.204,2.202 l 4.862,1.736 c 0.136,0.05 0.228,0.181 0.228,0.325 v 2.195 c 0,0.146 -0.092,0.277 -0.228,0.325 l -4.862,1.738 c -1.039,0.37 -1.84,1.174 -2.204,2.204 L 13.446,-0.12 C 13.398,0.025 13.35,0.173 13.29,0.325 12.943,1.259 12.976,2.26 13.389,3.149 l 2.045,4.431 c 0.06,0.131 0.034,0.287 -0.071,0.392 L 13.828,9.506 C 13.726,9.611 13.567,9.639 13.436,9.575 L 9.006,7.531 C 8.118,7.12 7.116,7.086 6.187,7.435 6.03,7.492 5.881,7.54 5.733,7.591 L 5.363,7.717 C 4.335,8.08 3.529,8.882 3.159,9.921 l -1.737,4.861 c -0.048,0.137 -0.178,0.229 -0.325,0.229 h -2.194 c -0.147,0 -0.276,-0.092 -0.327,-0.229 L -3.159,9.921 C -3.529,8.882 -4.335,8.08 -5.363,7.717 L -5.731,7.591 C -5.879,7.54 -6.03,7.492 -6.188,7.435 -7.116,7.087 -8.117,7.12 -9.006,7.531 l -4.433,2.046 c -0.133,0.062 -0.286,0.032 -0.39,-0.07 L -15.364,7.97 c -0.105,-0.103 -0.13,-0.259 -0.071,-0.39 l 2.046,-4.432 c 0.412,-0.89 0.447,-1.891 0.097,-2.819 -0.059,-0.156 -0.107,-0.308 -0.156,-0.455 l -0.126,-0.368 c -0.364,-1.032 -1.168,-1.836 -2.206,-2.204 l -4.86,-1.738 c -0.138,-0.049 -0.23,-0.179 -0.23,-0.325 v -2.195 c 0,-0.144 0.092,-0.275 0.23,-0.325 l 4.609,-1.646 c 1.042,-0.372 1.851,-1.19 2.215,-2.242 0.045,-0.129 0.126,-0.282 0.233,-0.473 0.583,-1.02 0.635,-2.266 0.145,-3.329 l -1.997,-4.326 c -0.059,-0.131 -0.034,-0.286 0.071,-0.39 l 1.535,-1.536 c 0.104,-0.103 0.257,-0.129 0.39,-0.071 l 4.433,2.048 c 0.483,0.223 1,0.336 1.518,0.336 m 8.585,-11.111 h -2.194 c -1.533,0 -2.91,0.969 -3.428,2.413 l -1.737,4.861 c -0.036,0.099 -0.109,0.175 -0.198,0.207 l -0.325,0.111 c -0.18,0.06 -0.36,0.12 -0.554,0.193 -0.098,0.036 -0.205,0.036 -0.286,-0.002 l -4.434,-2.048 c -1.377,-0.633 -3.025,-0.342 -4.1,0.733 l -1.535,1.536 c -1.074,1.074 -1.37,2.722 -0.734,4.101 l 1.997,4.326 c 0.047,0.101 0.039,0.221 -0.017,0.323 -0.171,0.3 -0.35,0.633 -0.483,1.023 -0.036,0.099 -0.111,0.179 -0.208,0.213 l -4.608,1.648 c -1.447,0.515 -2.418,1.894 -2.418,3.427 v 2.195 c 0,1.533 0.971,2.912 2.418,3.429 l 4.859,1.736 c 0.098,0.034 0.175,0.109 0.205,0.199 l 0.107,0.314 c 0.062,0.186 0.126,0.368 0.197,0.566 0.038,0.099 0.036,0.202 -0.003,0.283 l -2.046,4.433 c -0.636,1.379 -0.34,3.03 0.734,4.101 l 1.535,1.537 c 1.075,1.075 2.723,1.368 4.1,0.732 l 4.434,-2.046 c 0.081,-0.038 0.186,-0.04 0.284,-0.003 0.198,0.075 0.382,0.136 0.569,0.199 l 0.314,0.106 c 0.087,0.03 0.16,0.108 0.196,0.205 l 1.737,4.862 c 0.516,1.445 1.893,2.414 3.428,2.414 h 2.194 c 1.536,0 2.913,-0.969 3.428,-2.414 L 6.263,11.03 C 6.297,10.933 6.37,10.855 6.458,10.823 L 6.776,10.718 C 6.96,10.656 7.144,10.595 7.339,10.52 7.438,10.485 7.541,10.483 7.623,10.523 l 4.434,2.046 c 1.381,0.638 3.028,0.342 4.102,-0.733 L 17.695,10.3 C 18.769,9.227 19.062,7.578 18.427,6.201 L 16.383,1.768 C 16.343,1.683 16.341,1.582 16.377,1.483 16.451,1.287 16.512,1.105 16.573,0.922 l 0.108,-0.318 c 0.033,-0.091 0.11,-0.166 0.205,-0.198 l 4.861,-1.738 c 1.446,-0.517 2.417,-1.894 2.417,-3.429 v -2.195 c 0,-1.535 -0.971,-2.912 -2.417,-3.427 l -4.861,-1.736 c -0.095,-0.036 -0.172,-0.109 -0.203,-0.196 l -0.11,-0.323 c -0.061,-0.182 -0.122,-0.366 -0.198,-0.562 -0.034,-0.097 -0.032,-0.197 0.006,-0.28 l 2.046,-4.436 c 0.635,-1.379 0.342,-3.025 -0.73,-4.101 l -1.539,-1.536 c -1.073,-1.073 -2.722,-1.37 -4.101,-0.733 l -4.326,1.998 c -0.1,0.048 -0.221,0.041 -0.322,-0.017 -0.297,-0.169 -0.629,-0.346 -1.022,-0.481 -0.102,-0.036 -0.18,-0.113 -0.216,-0.213 l -1.646,-4.607 c -0.517,-1.446 -1.892,-2.415 -3.428,-2.415" />
          </g>
          <g
             transform="translate(829.2809,517.0012)"
             id="g209">
            <path
               inkscape:connector-curvature="0"
               id="path211"
               style="fill:#292e6d;fill-opacity:1;fill-rule:nonzero;stroke:none"
               d="m 0,0 0.238,-123.841 c 0.008,-3.89 -3.143,-7.051 -7.034,-7.059 h -0.017 c -3.883,0 -7.035,3.151 -7.043,7.033 l -0.239,123.841 c -0.026,14.711 -6.056,26.498 -14.393,42.811 -14.051,27.493 -33.269,65.103 -33.418,139.59 -0.044,20.618 3.142,40.162 8.944,58.394 2.148,6.761 4.657,13.337 7.5,19.72 v -6.303 l 13.849,2.826 c -2.342,-5.089 -4.455,-10.309 -6.313,-15.662 -6.383,-18.258 -9.922,-38.005 -9.878,-58.94 C -47.662,111.295 -29.333,75.429 -15.952,49.238 -7.403,32.503 -0.035,18.091 0,0" />
          </g>
          <g
             transform="translate(1216.7535,630.0833)"
             id="g213">
            <path
               inkscape:connector-curvature="0"
               id="path215"
               style="fill:#292e6d;fill-opacity:1;fill-rule:nonzero;stroke:none"
               d="m 0,0 c 0.035,-14.57 -11.507,-22.811 -19.923,-28.832 -4.138,-2.958 -9.235,-6.603 -10.388,-9.227 -1.003,-2.315 -0.836,-3.283 0.15,-7.473 1.294,-5.582 3.46,-14.887 -2.333,-25.566 -1.752,-3.231 -4.208,-5.582 -6.647,-7.422 2.465,-3.407 4.658,-7.641 4.665,-13.09 0.028,-9.552 -7.21,-15.24 -14.869,-21.261 -2.368,-1.858 -4.243,-3.381 -5.598,-4.552 0.29,-0.625 0.589,-1.276 0.862,-1.875 3.521,-7.571 8.83,-18.998 5.837,-37.213 -5.96,-36.209 -32.168,-39.061 -68.536,-39.14 l -2.729,0.008 c -1.329,0.009 -2.659,0.018 -3.953,0.027 -22.969,0.185 -32.468,0.282 -47.028,-38.304 l -3.795,-10.062 h -76.591 V -2.061 c 0,3.892 3.151,7.043 7.052,7.043 3.89,0 7.043,-3.151 7.043,-7.043 V -229.88 h 52.742 l 0.352,0.943 c 17.21,45.558 33.243,47.663 60.225,47.424 1.418,-0.017 2.721,-0.026 4.032,-0.026 l 2.686,-0.018 c 40.733,0.088 50.946,5.203 54.591,27.335 2.289,13.928 -1.585,22.274 -4.701,28.973 -1.445,3.099 -2.695,5.784 -3.153,8.575 l -0.474,2.967 1.804,2.403 c 1.989,2.641 6.154,6.013 10.617,9.517 5.89,4.631 9.499,7.598 9.491,10.15 -0.009,2.474 -1.77,4.737 -4.464,7.906 l -0.229,0.273 c -1.769,2.104 -2.517,4.815 -2.095,7.482 0.422,2.668 1.972,5.01 4.26,6.436 2.536,1.567 5.116,3.16 6.207,5.159 3.24,5.978 2.104,10.881 0.995,15.626 -1.109,4.754 -2.253,9.658 0.669,16.349 2.711,6.171 8.989,10.67 15.054,15.01 8.53,6.101 14.086,10.582 14.077,17.37 0,0.316 -0.105,0.633 -0.3,0.88 l -4.287,5.661 c -31.781,41.86 -42.486,55.955 -42.583,102.544 -0.026,13.117 -2.086,25.609 -5.854,37.362 -1.638,5.115 -3.592,10.08 -5.855,14.904 l 16.164,-1.98 c 1.911,-4.807 3.557,-9.738 4.921,-14.79 3.046,-11.269 4.693,-23.11 4.719,-35.47 0.088,-41.853 8.486,-52.91 39.713,-94.04 L -3.161,9.376 C -1.127,6.69 0,3.363 0,0" />
          </g>
          <g
             transform="translate(1207.9323,802.9944)"
             id="g217">
            <path
               inkscape:connector-curvature="0"
               id="path219"
               style="fill:#292e6d;fill-opacity:1;fill-rule:nonzero;stroke:none"
               d="m 0,0 -38.498,28.304 v 11.462 l -0.3,51.527 9.632,63.28 c 1.399,9.236 -1.92,18.567 -8.874,24.958 -7.246,6.647 -17.317,9.227 -26.966,6.903 L -495.704,82.604 c -3.776,-0.907 -6.849,-3.592 -8.222,-7.184 -1.356,-3.548 -0.881,-7.535 1.285,-10.67 l 31.87,-46.175 c 2.993,-4.348 8.6,-6.171 13.627,-4.428 l 2.994,1.039 15.952,-37.944 v -12.016 c 0,-3.487 1.557,-6.752 4.269,-8.971 0.713,-0.59 1.496,-1.083 2.316,-1.48 1.601,-0.783 3.371,-1.188 5.168,-1.188 0.8,0 1.61,0.08 2.412,0.247 l 7.456,1.522 c 1.857,5.354 3.971,10.574 6.312,15.663 l -13.848,-2.827 v 9.57 c 0,1.541 -0.299,3.047 -0.898,4.464 l -17,40.443 c -1.875,4.446 -6.25,7.166 -10.889,7.166 -1.286,0 -2.607,-0.211 -3.883,-0.651 l -3.39,-1.171 -28.796,41.729 427.265,102.993 c 5.07,1.233 10.361,-0.115 14.138,-3.583 3.547,-3.257 5.176,-7.8 4.472,-12.458 l -9.657,-63.508 c -0.088,-0.59 -0.133,-1.198 -0.133,-1.779 l 0.3,-51.685 V 27.018 c 0,-3.663 1.778,-7.149 4.745,-9.331 l 39.493,-29.035 c 2.007,-1.47 1.681,-3.284 1.303,-4.225 -0.265,-0.67 -1.373,-2.835 -4.411,-2.466 l -36.534,4.473 -16.164,1.98 c 2.262,-4.824 4.216,-9.789 5.854,-14.904 l 15.231,-1.866 29.906,-3.663 c 8.407,-1.03 16.128,3.487 19.209,11.251 C 9.05,-13.215 6.62,-4.859 0,0" />
          </g>
        </g>
      </g>
      <text
         id="text223"
         style="font-variant:normal;font-weight:bold;font-stretch:normal;font-size:153.66090393px;font-family:'IBM Plex Sans';-inkscape-font-specification:IBMPlexSans-Bold;writing-mode:lr-tb;fill:#009e9a;fill-opacity:1;fill-rule:nonzero;stroke:none"
         transform="matrix(1,0,0,-1,702.5459,232.623)">
        <tspan
           id="tspan221"
           sodipodi:role="line"
           y="0"
           x="0 99.725922 178.70763 254.00146 356.33963 442.38974">DevOps</tspan>
      </text>
      <text
         id="text227"
         style="font-variant:normal;font-weight:600;font-stretch:normal;font-size:95.207901px;font-family:'IBM Plex Sans SemiBold';-inkscape-font-specification:IBMPlexSans-SemiBold;writing-mode:lr-tb;fill:#292e6d;fill-opacity:1;fill-rule:nonzero;stroke:none"
         transform="matrix(1,0,0,-1,708.8936,115.0605)">
        <tspan
           id="tspan225"
           sodipodi:role="line"
           y="0"
           x="0 56.553493 105.58556 185.5602 265.53482 314.18607 365.59833 418.15311 466.70914">Commander</tspan>
      </text>
      <g
         id="g229">
        <g
           clip-path="url(#clipPath235)"
           id="g231">
          <g
             transform="translate(820.7877,520.6829)"
             id="g237">
            <path
               inkscape:connector-curvature="0"
               id="path239"
               style="fill:none;stroke:#292e6d;stroke-width:10.71500015;stroke-linecap:butt;stroke-linejoin:miter;stroke-miterlimit:10;stroke-dasharray:none;stroke-opacity:1"
               d="m 0,0 h 69.985 c 5.948,0 10.506,-5.285 9.632,-11.169 l -8.805,-59.297 c -0.183,-1.23 -0.129,-2.483 0.16,-3.692 l 11.982,-45.87 c 1.17,-4.478 -2.214,-8.85 -6.841,-8.84 l -74.546,0.148" />
          </g>
          <g
             transform="translate(897.3336,494.093)"
             id="g241">
            <path
               inkscape:connector-curvature="0"
               id="path243"
               style="fill:none;stroke:#292e6d;stroke-width:10.71500015;stroke-linecap:butt;stroke-linejoin:miter;stroke-miterlimit:10;stroke-dasharray:none;stroke-opacity:1"
               d="M 0,0 H -72.544" />
          </g>
          <g
             transform="translate(893.4352,467.7512)"
             id="g245">
            <path
               inkscape:connector-curvature="0"
               id="path247"
               style="fill:none;stroke:#292e6d;stroke-width:10.71500015;stroke-linecap:butt;stroke-linejoin:miter;stroke-miterlimit:10;stroke-dasharray:none;stroke-opacity:1"
               d="M 0,0 H -68.646" />
          </g>
          <g
             transform="translate(894.194,441.4094)"
             id="g249">
            <path
               inkscape:connector-curvature="0"
               id="path251"
               style="fill:none;stroke:#292e6d;stroke-width:10.71500015;stroke-linecap:butt;stroke-linejoin:miter;stroke-miterlimit:10;stroke-dasharray:none;stroke-opacity:1"
               d="M 0,0 H -69.404" />
          </g>
          <g
             transform="translate(900.4615,415.0686)"
             id="g253">
            <path
               inkscape:connector-curvature="0"
               id="path255"
               style="fill:none;stroke:#292e6d;stroke-width:10.71500015;stroke-linecap:butt;stroke-linejoin:miter;stroke-miterlimit:10;stroke-dasharray:none;stroke-opacity:1"
               d="M 0,0 H -75.672" />
          </g>
          <g
             transform="translate(775.9547,657.8606)"
             id="g257">
            <path
               inkscape:connector-curvature="0"
               id="path259"
               style="fill:none;stroke:#292e6d;stroke-width:10.71500015;stroke-linecap:butt;stroke-linejoin:miter;stroke-miterlimit:10;stroke-dasharray:none;stroke-opacity:1"
               d="m 0,0 h 18.169 c 3.987,0 7.25,3.263 7.25,7.25 v 67.5 c 0,3.987 -3.263,7.25 -7.25,7.25 H 0" />
          </g>
          <g
             transform="translate(906.7897,620.9397)"
             id="g261">
            <path
               inkscape:connector-curvature="0"
               id="path263"
               style="fill:#7c56a3;fill-opacity:1;fill-rule:nonzero;stroke:none"
               d="m 0,0 c -42.967,0 -77.922,34.955 -77.922,77.922 0,42.965 34.955,77.92 77.922,77.92 20.512,0 40.594,-8.319 55.097,-22.823 2.754,-2.752 2.754,-7.215 0,-9.969 -2.75,-2.752 -7.218,-2.752 -9.967,0.002 -11.88,11.88 -28.328,18.691 -45.13,18.691 -35.192,0 -63.824,-28.631 -63.824,-63.821 0,-35.193 28.632,-63.824 63.824,-63.824 16.458,0 32.127,6.32 44.121,17.798 2.814,2.692 7.276,2.593 9.966,-0.22 2.692,-2.813 2.594,-7.275 -0.218,-9.967 C 39.237,7.71 20.106,0 0,0" />
          </g>
        </g>
      </g>
    </g>
  </g>
</svg>
